<?xml version="1.0" standalone="no"?>
<!DOCTYPE svg PUBLIC "-//W3C//DTD SVG 20010904//EN"
 "http://www.w3.org/TR/2001/REC-SVG-20010904/DTD/svg10.dtd">
<svg version="1.0" xmlns="http://www.w3.org/2000/svg"
 width="341.000000pt" height="128.000000pt" viewBox="0 0 341.000000 128.000000"
 preserveAspectRatio="xMidYMid meet">

<g transform="translate(0.000000,128.000000) scale(0.100000,-0.100000)"
fill="#000000" stroke="none">
<path d="M0 640 l0 -640 1705 0 1705 0 0 640 0 640 -1705 0 -1705 0 0 -640z
m600 237 l13 -253 68 130 c37 72 97 185 131 251 l64 120 82 3 c45 2 82 0 82
-3 0 -11 -22 -48 -148 -250 -144 -230 -252 -412 -252 -426 0 -5 -40 -9 -90 -9
l-90 0 0 58 c0 31 -16 183 -35 336 -19 153 -35 283 -35 287 0 5 44 9 98 9 l98
0 14 -253z m1620 192 c0 -6 -9 -32 -21 -59 l-21 -48 -78 5 c-67 5 -85 3 -124
-16 -54 -27 -91 -67 -123 -137 -49 -107 -36 -214 31 -255 34 -21 113 -25 179
-10 43 10 44 8 20 -60 -21 -59 -34 -63 -176 -57 -118 4 -161 28 -202 113 -25
50 -27 64 -23 133 10 167 129 324 291 383 59 21 247 27 247 8z m490 -5 c0 -3
-5 -25 -11 -50 l-11 -44 -128 0 -128 0 -16 -65 c-9 -35 -16 -69 -16 -75 0 -8
32 -10 100 -8 l101 3 -7 -30 c-17 -76 -13 -74 -126 -77 l-103 -3 -16 -60 c-9
-33 -19 -73 -23 -89 l-7 -28 136 7 c74 4 135 5 135 3 0 -2 -7 -28 -15 -56
l-16 -52 -200 0 c-188 0 -200 1 -195 18 37 114 113 384 138 485 l31 127 188 0
c104 0 189 -3 189 -6z m470 -10 c75 -45 79 -159 8 -254 -49 -67 -174 -120
-283 -120 l-52 0 -27 -120 -28 -120 -70 0 c-67 0 -69 1 -62 23 36 114 126 432
144 510 l22 97 160 0 c130 0 165 -3 188 -16z m-1966 -146 c-4 -7 -40 -65 -80
-128 -39 -63 -100 -166 -135 -227 l-63 -113 -64 0 -64 0 20 33 c11 17 60 97
109 177 49 80 105 173 124 208 l34 62 63 0 c48 0 61 -3 56 -12z m316 -8 c0 -5
16 -102 35 -214 19 -113 35 -214 35 -225 0 -19 -6 -21 -60 -21 -59 0 -60 1
-60 28 0 15 -3 44 -6 65 l-7 37 -82 0 -82 0 -29 -65 -29 -64 -58 -1 -58 0 16
30 c8 16 65 118 125 226 61 109 110 201 110 206 0 4 34 8 75 8 42 0 75 -4 75
-10z m-598 -675 l3 -65 -62 0 c-68 0 -62 -6 -78 73 -2 11 3 17 16 17 15 0 19
-7 19 -35 0 -26 4 -35 16 -35 13 0 15 7 11 35 -4 26 -2 35 9 35 9 0 14 -11 14
-34 0 -19 5 -38 11 -42 8 -4 10 12 7 55 -2 52 0 61 14 61 13 0 17 -12 20 -65z
m700 0 l3 -66 -40 3 c-40 3 -40 3 -40 43 0 34 3 40 23 43 17 3 21 8 17 23 -5
14 -2 19 13 19 18 0 21 -8 24 -65z m358 16 c0 -27 3 -56 6 -65 5 -13 -2 -16
-35 -16 -36 0 -41 3 -47 27 -8 32 6 57 35 61 24 4 27 12 9 30 -9 9 -7 12 10
12 20 0 22 -5 22 -49z m640 39 c0 -5 -4 -10 -10 -10 -5 0 -10 5 -10 10 0 6 5
10 10 10 6 0 10 -4 10 -10z m50 -43 c0 -29 5 -58 12 -65 9 -9 1 -12 -37 -12
l-50 0 0 45 c0 55 22 62 27 8 5 -58 23 -40 23 22 0 38 3 55 12 55 9 0 13 -17
13 -53z m-2163 28 c8 -22 -4 -30 -22 -15 -8 7 -22 10 -30 6 -17 -6 -21 -61 -4
-72 16 -10 55 15 68 42 15 33 57 33 72 0 8 -17 8 -29 0 -45 -14 -25 -59 -29
-68 -5 -5 15 -7 15 -15 0 -13 -24 -64 -20 -82 6 -9 12 -16 29 -16 38 0 9 7 26
16 38 18 26 71 31 81 7z m700 0 c8 -22 -4 -30 -22 -15 -23 19 -45 5 -45 -30 0
-35 22 -49 45 -30 18 15 30 7 22 -15 -10 -24 -63 -19 -81 7 -9 12 -16 29 -16
38 0 9 7 26 16 38 18 26 71 31 81 7z m93 0 c0 -11 -7 -14 -25 -9 -19 5 -25 2
-25 -10 0 -9 8 -16 20 -16 11 0 20 -4 20 -10 0 -5 -9 -10 -20 -10 -12 0 -20
-7 -20 -16 0 -13 7 -15 30 -10 22 4 30 2 30 -9 0 -11 -12 -15 -47 -15 l-48 0
0 60 0 60 43 0 c31 0 42 -4 42 -15z m108 -18 c3 -24 -2 -30 -27 -40 -23 -8
-29 -16 -25 -29 4 -13 0 -18 -13 -18 -15 0 -18 9 -18 60 l0 61 40 -3 c36 -3
40 -6 43 -31z m936 18 c3 -9 19 -15 41 -15 19 0 35 -4 35 -10 0 -5 -7 -10 -16
-10 -13 0 -15 -8 -12 -35 3 -30 1 -35 -17 -35 -18 0 -20 5 -17 40 2 22 0 40
-6 40 -5 0 -9 -17 -8 -37 l1 -38 -45 -3 -45 -3 0 61 0 60 41 0 c28 0 44 -5 48
-15z m-1368 -9 c9 -9 10 -17 4 -21 -13 -8 -13 -55 0 -55 6 0 10 -4 10 -10 0
-21 -40 -10 -44 13 -17 77 -5 107 30 73z m812 -3 c12 -12 13 -18 4 -21 -18 -6
-15 -43 6 -59 16 -12 15 -13 -8 -11 -20 3 -26 10 -31 43 -6 37 -3 65 8 65 2 0
12 -8 21 -17z m-1104 -15 c3 -7 7 -28 10 -45 l6 -33 -48 0 -47 0 0 45 0 45 38
0 c21 0 39 -5 41 -12z m94 -6 c3 -9 -4 -11 -25 -7 l-28 6 28 -16 c38 -22 32
-49 -11 -53 -24 -2 -32 1 -32 13 0 12 7 14 28 10 l27 -6 -27 16 c-27 15 -35
34 -21 49 11 11 56 2 61 -12z m286 2 c12 -31 6 -44 -21 -45 l-28 -2 28 -4 c32
-5 27 -23 -7 -23 -41 0 -63 49 -34 78 17 17 55 15 62 -4z m426 1 c0 -11 -7
-14 -27 -10 l-28 6 28 -16 c38 -22 32 -49 -11 -53 -24 -2 -32 1 -32 13 0 11 6
14 25 9 14 -3 25 -3 25 0 0 4 -11 11 -25 16 -24 9 -32 29 -18 43 13 14 63 7
63 -8z m214 -1 c12 -31 6 -44 -21 -45 l-28 -2 28 -4 c32 -5 27 -23 -7 -23 -28
0 -46 18 -46 45 0 12 5 26 12 33 17 17 55 15 62 -4z m182 -8 c10 -41 -4 -66
-36 -66 -32 0 -46 25 -36 66 9 35 63 35 72 0z m182 12 c7 -7 12 -22 12 -34 0
-51 -72 -61 -78 -11 -2 16 -1 35 2 43 7 17 48 18 64 2z m133 -9 c16 -31 -3
-69 -36 -69 -17 0 -29 8 -36 24 -15 32 4 66 36 66 15 0 29 -9 36 -21z m297
-26 c3 -43 3 -43 -32 -43 -42 0 -47 6 -39 54 5 34 8 37 37 34 29 -3 31 -6 34
-45z m82 32 c0 -11 -7 -14 -27 -10 l-28 6 28 -16 c38 -22 32 -49 -11 -53 -24
-2 -32 1 -32 13 0 11 6 14 25 9 14 -3 25 -3 25 0 0 4 -11 11 -25 16 -24 9 -32
29 -18 43 13 14 63 7 63 -8z"/>
<path d="M2935 968 c-3 -7 -16 -55 -29 -107 l-25 -94 57 7 c101 12 156 54 168
128 10 56 -19 78 -101 78 -44 0 -67 -4 -70 -12z"/>
<path d="M1390 755 c-24 -49 -46 -93 -48 -97 -2 -5 24 -8 58 -8 l62 0 -7 48
c-4 26 -10 70 -14 97 l-6 50 -45 -90z"/>
<path d="M1577 223 c-13 -12 -7 -43 8 -43 9 0 15 9 15 25 0 24 -10 32 -23 18z"/>
<path d="M1938 218 c-7 -19 2 -38 18 -38 8 0 14 10 14 25 0 26 -24 35 -32 13z"/>
<path d="M550 205 c0 -16 6 -25 15 -25 9 0 15 9 15 25 0 16 -6 25 -15 25 -9 0
-15 -9 -15 -25z"/>
<path d="M1360 239 c0 -14 5 -19 17 -17 26 5 29 38 4 38 -15 0 -21 -6 -21 -21z"/>
<path d="M2300 244 c0 -17 22 -14 28 4 2 7 -3 12 -12 12 -9 0 -16 -7 -16 -16z"/>
<path d="M2300 195 c0 -8 9 -15 20 -15 11 0 20 7 20 15 0 8 -9 15 -20 15 -11
0 -20 -7 -20 -15z"/>
<path d="M650 199 c0 -38 24 -35 28 4 2 19 -1 27 -12 27 -11 0 -16 -10 -16
-31z"/>
<path d="M1030 220 c0 -5 7 -10 16 -10 8 0 12 5 9 10 -3 6 -10 10 -16 10 -5 0
-9 -4 -9 -10z"/>
<path d="M1670 220 c0 -5 7 -10 16 -10 8 0 12 5 9 10 -3 6 -10 10 -16 10 -5 0
-9 -4 -9 -10z"/>
<path d="M1843 214 c-8 -21 13 -42 28 -27 13 13 5 43 -11 43 -6 0 -13 -7 -17
-16z"/>
<path d="M2037 223 c-13 -12 -7 -43 7 -43 16 0 25 19 18 38 -5 13 -15 16 -25
5z"/>
<path d="M2160 205 c0 -16 6 -25 15 -25 9 0 15 9 15 25 0 16 -6 25 -15 25 -9
0 -15 -9 -15 -25z"/>
<path d="M2455 220 c-3 -5 1 -10 9 -10 9 0 16 5 16 10 0 6 -4 10 -9 10 -6 0
-13 -4 -16 -10z"/>
</g>
</svg>
